<svg xmlns="http://www.w3.org/2000/svg" id="Error_Circle_-_Outlined" width="24" height="24" data-name="Error Circle - Outlined" viewBox="0 0 24 24">
    <path id="Error" fill="#d63031" d="M7.5 6.75a.75.75 0 0 0-.75.75v3a.75.75 0 0 0 1.5 0v-3a.75.75 0 0 0-.75-.75zm.285-2.94a.775.775 0 0 0-.818.158.863.863 0 0 0-.158.248.63.63 0 0 0-.06.285.75.75 0 0 0 .218.532.862.862 0 0 0 .248.158A.75.75 0 0 0 8.25 4.5a.788.788 0 0 0-.217-.532.75.75 0 0 0-.248-.158zM7.5 0A7.5 7.5 0 1 0 15 7.5 7.5 7.5 0 0 0 7.5 0zm0 13.5a6 6 0 1 1 6-6 6 6 0 0 1-6 6z" transform="rotate(180 9.75 9.75)"/>
</svg>
