<svg id="Eye_disabled" data-name="Eye disabled" xmlns="http://www.w3.org/2000/svg" width="24" height="24" viewBox="0 0 24 24">
  <rect id="Shape" width="24" height="24" fill="#02234b" opacity="0"/>
  <path id="eye-slash" d="M8.7,5.057A5.2,5.2,0,0,1,9.5,5c2.384,0,4.625,1.717,5.93,4.5a11.417,11.417,0,0,1-.675,1.229.749.749,0,1,0,1.274.787,11.822,11.822,0,0,0,.907-1.724.75.75,0,0,0,0-.592C15.417,5.68,12.569,3.5,9.5,3.5a5.825,5.825,0,0,0-1.049.09.76.76,0,1,0,.255,1.5ZM3.281,2.216A.753.753,0,0,0,2.216,3.281L4.54,5.6A10.96,10.96,0,0,0,2.059,9.2a.75.75,0,0,0,0,.6c1.514,3.516,4.363,5.7,7.436,5.7a6.942,6.942,0,0,0,3.786-1.154l2.429,2.436a.753.753,0,1,0,1.064-1.064ZM8.048,9.105l1.837,1.837a1.357,1.357,0,0,1-.39.052A1.5,1.5,0,0,1,8,9.5,1.357,1.357,0,0,1,8.048,9.105ZM9.5,13.993c-2.384,0-4.625-1.717-5.922-4.5A9.063,9.063,0,0,1,5.6,6.654L6.924,8a3,3,0,0,0,4.07,4.07l1.192,1.177a5.427,5.427,0,0,1-2.691.75Z" transform="translate(2.504 2.504)"/>
</svg>
