<svg id="Eye_enabled" data-name="Eye enabled" xmlns="http://www.w3.org/2000/svg" width="24" height="24" viewBox="0 0 24 24">
  <rect id="Shape" width="24" height="24" fill="#02234b" opacity="0"/>
  <path id="Eye" d="M16.934,9.7C15.419,6.182,12.57,4,9.5,4S3.574,6.182,2.059,9.7a.75.75,0,0,0,0,.6C3.574,13.814,6.423,16,9.5,16s5.923-2.182,7.437-5.7A.75.75,0,0,0,16.934,9.7ZM9.5,14.5c-2.377,0-4.626-1.717-5.923-4.5C4.871,7.216,7.12,5.5,9.5,5.5s4.626,1.717,5.923,4.5C14.122,12.779,11.873,14.5,9.5,14.5ZM9.5,7a3,3,0,1,0,3,3A3,3,0,0,0,9.5,7Zm0,4.5A1.5,1.5,0,1,1,11,10,1.5,1.5,0,0,1,9.5,11.5Z" transform="translate(2.504 2.001)"/>
</svg>
