<svg id="Manage_cols" data-name="Manage cols" xmlns="http://www.w3.org/2000/svg" width="24" height="24" viewBox="0 0 24 24">
  <rect id="Shape" width="24" height="24" opacity="0"/>
  <path id="Manage_cols-2" data-name="Manage cols" d="M11.246,9.912a2,2,0,0,1-2-2v-6a2,2,0,0,1,2-2h4a2,2,0,0,1,2,2v6a2,2,0,0,1-2,2Zm1.623-4.674V6.862a.523.523,0,0,0,.142.355.5.5,0,0,0,.711,0,.484.484,0,0,0,.148-.355l-.005-1.624,1.623.006a.486.486,0,0,0,.356-.149.5.5,0,0,0,0-.706.491.491,0,0,0-.356-.146H13.865l.005-1.619a.5.5,0,1,0-1,0V4.244H11.252a.481.481,0,0,0-.356.146.486.486,0,0,0-.149.355.507.507,0,0,0,.5.5l1.615-.006ZM.832,9.13a.83.83,0,1,1,0-1.66h5.81a.83.83,0,1,1,0,1.66Zm0-3.32a.83.83,0,0,1,0-1.661h5.81a.83.83,0,0,1,0,1.661Zm0-3.32a.83.83,0,0,1,0-1.66h5.81a.83.83,0,1,1,0,1.66Z" transform="translate(3.751 7.087)"/>
</svg>
