<svg xmlns="http://www.w3.org/2000/svg" width="64" height="60.487" viewBox="0 0 64 60.487">
    <g opacity="0.12">
        <path d="M242.523 476.8h25.16a.828.828 0 0 1 .823.823v.411a.828.828 0 0 1-.823.823h-25.16a.828.828 0 0 1-.823-.823v-.411a.823.823 0 0 1 .823-.823z" transform="translate(-9.9 -36.9) translate(-216.664 -411.175)"/>
        <path d="M242.523 344.6h25.982a.828.828 0 0 1 .823.823v.411a.828.828 0 0 1-.823.823h-25.982a.828.828 0 0 1-.823-.823v-.411a.823.823 0 0 1 .823-.823z" transform="translate(-9.9 -36.9) translate(-216.664 -287.608)"/>
        <path d="M47.93 91.895c-1.025 0-4.525.039-5.511.039h-6.948c-2.88 0-5.923-.039-8.8-.326-3.206-.326-7.522-1.358-9.952-4.192-2.507-3.082-3.121-5.877-3.33-9.658-.124-2.468-.2-6.125-.2-10.853v-3.291c0-3.944.085-7.072.2-9.246.2-3.82.823-6.576 3.369-9.619 2.383-2.88 6.739-3.866 9.952-4.192a115.443 115.443 0 0 1 12.126-.411h.411a111.464 111.464 0 0 1 12 .411c3.206.326 7.522 1.358 9.952 4.192 2.468 2.919 2.795 5.59 3.291 9l.124.784c.2 1.521.287 6.536.287 11.1 1.149.326 2.259-.451 3.291.085.039-5.1-.039-9.7-.287-11.636l-.124-.738c-.5-3.618-.947-7.033-3.99-10.65-2.507-2.958-6.576-4.767-12.126-5.387A121.5 121.5 0 0 0 39.3 36.9h-.411a122.415 122.415 0 0 0-12.459.411c-5.629.535-9.7 2.344-12.211 5.341-3.121 3.7-3.9 7.2-4.114 11.551-.124 2.22-.2 5.387-.2 9.416v3.291c0 4.767.085 8.469.2 11.016.248 4.4 1.025 7.849 4.114 11.551 2.507 2.958 6.576 4.767 12.126 5.387a85.281 85.281 0 0 0 9 .372h7.078c1.933 0 3.9 0 5.923-.124-1.069-.958.407-2.022-.416-3.217z" transform="translate(-9.9 -36.9)"/>
        <path d="M600.125 547.478a11.506 11.506 0 1 0 10.115 12.746 11.513 11.513 0 0 0-10.115-12.746zm7.686 12.452a9.06 9.06 0 1 1-7.973-10.03 9.081 9.081 0 0 1 7.972 10.031z" transform="translate(-9.9 -36.9) translate(-539.696 -477.165)"/>
        <path d="M860.846 832.5l6.5 6.452-1.646 1.848-6.5-6.451z" transform="translate(-9.9 -36.9) translate(-793.842 -743.648)"/>
        <path d="M855.227 828a1.22 1.22 0 1 1-1.724.085 1.226 1.226 0 0 1 1.724-.085z" transform="translate(-9.9 -36.9) translate(-788.223 -739.152)"/>
        <path d="M954.727 926.2a1.22 1.22 0 1 1-1.724.085 1.225 1.225 0 0 1 1.724-.085z" transform="translate(-9.9 -36.9) translate(-881.226 -830.939)"/>
        <path d="M568.709 880.7a1.524 1.524 0 0 1-1.561 1.606 1.615 1.615 0 1 1-.078-3.206 1.607 1.607 0 0 1 1.639 1.6z" transform="translate(-9.9 -36.9) translate(-519.133 -787.205)"/>
        <path d="M853.73 451.4a1.521 1.521 0 0 1-1.561 1.606 1.608 1.608 0 1 1-.085-3.206 1.581 1.581 0 0 1 1.646 1.6z" transform="translate(-9.9 -36.9) translate(-785.616 -385.937)"/>
        <path d="M260.114 603.824a1.015 1.015 0 0 1-1.025 1.025h-16.364a1.015 1.015 0 0 1-1.025-1.025 1.015 1.015 0 0 1 1.025-1.025h16.364a1.007 1.007 0 0 1 1.025 1.025z" transform="translate(-9.9 -36.9) translate(-216.664 -528.946)"/>
    </g>
</svg>
