<svg version="1.2" baseProfile="tiny-ps" xmlns="http://www.w3.org/2000/svg" viewBox="0 0 512 512" width="15" height="15">
	<title>StopCircleOutlined-svg (1)-svg</title>
	<style>
		tspan { white-space:pre }
		.shp0 { fill: none;stroke: currentColor;stroke-width: 32 } 
		.shp1 {  } 
	</style>
	<path id="Layer" class="shp0" d="M448 256C448 150 362 64 256 64C150 64 64 150 64 256C64 362 150 448 256 448C362 448 448 362 448 256Z" />
	<path id="Layer" class="shp1" d="M310.4 336L201.6 336C198.24 336 194.91 335.33 191.81 334.05C188.7 332.76 185.88 330.87 183.5 328.5C181.13 326.12 179.24 323.3 177.95 320.19C176.67 317.09 176 313.76 176 310.4L176 201.6C176 198.24 176.67 194.91 177.95 191.81C179.24 188.7 181.13 185.88 183.5 183.5C185.88 181.13 188.7 179.24 191.81 177.95C194.91 176.67 198.24 176 201.6 176L310.4 176C313.76 176 317.09 176.67 320.19 177.95C323.3 179.24 326.12 181.13 328.5 183.5C330.87 185.88 332.76 188.7 334.05 191.81C335.33 194.91 336 198.24 336 201.6L336 310.4C336 313.76 335.33 317.09 334.05 320.19C332.76 323.3 330.87 326.12 328.5 328.5C326.12 330.87 323.3 332.76 320.19 334.05C317.09 335.33 313.76 336 310.4 336L310.4 336Z" />
</svg>