<svg id="Sun" xmlns="http://www.w3.org/2000/svg" width="24" height="24" viewBox="0 0 24 24">
  <rect id="Shape" width="24" height="24" opacity="0"/>
  <path id="Sun-2" data-name="Sun" d="M5,14.375l-.586.586a.823.823,0,0,0,1.163,1.163l.586-.586A.825.825,0,0,0,5,14.375ZM4.475,10.25a.825.825,0,0,0-.825-.825H2.825a.825.825,0,1,0,0,1.65H3.65A.825.825,0,0,0,4.475,10.25ZM10.25,4.475a.825.825,0,0,0,.825-.825V2.825a.825.825,0,1,0-1.65,0V3.65A.825.825,0,0,0,10.25,4.475ZM5,6.166A.823.823,0,0,0,6.166,5l-.586-.586A.825.825,0,0,0,4.417,5.581Zm9.9.239a.825.825,0,0,0,.578-.239l.586-.586A.825.825,0,1,0,14.9,4.417L14.375,5a.822.822,0,0,0,.545,1.4Zm2.772,3.019H16.85a.825.825,0,0,0,0,1.65h.825a.825.825,0,1,0,0-1.65Zm-7.425,6.6a.825.825,0,0,0-.825.825v.825a.825.825,0,1,0,1.65,0V16.85A.825.825,0,0,0,10.25,16.025Zm5.247-1.65A.825.825,0,0,0,14.375,15.5l.586.586a.823.823,0,1,0,1.163-1.163ZM10.25,5.713a4.537,4.537,0,1,0,4.537,4.538A4.538,4.538,0,0,0,10.25,5.713Zm0,7.425a2.887,2.887,0,1,1,2.887-2.887,2.887,2.887,0,0,1-2.887,2.887Z" transform="translate(1.75 1.75)"/>
</svg>
